# xmcd
#
# Track frame offsets: 
#        150
#        25340
#        48392
#        70200
#        91915
#        113505
#        136020
#        157857
#        179415
#        198375
#
# Disc length: 2869 seconds
#
# Revision: 7
# Processed by: cddbd v1.5.2PL0 Copyright (c) Steve Scherf et al.
# Submitted via: ExactAudioCopyFreeDBPlugin 1.0
#
DISCID=790b330a
DTITLE=Najee - Morning Tenderness
DYEAR=1900
DGENRE=Smooth Jazz
TTITLE0=Not A Day Goes By
TTITLE1=Sapphire
TTITLE2=Window Of Change
TTITLE3=All The Things (Your Man Won't Do)
TTITLE4=Just For You
TTITLE5=Room To Breathe
TTITLE6=Morning Tenderness
TTITLE7=Indian Summer
TTITLE8=Second Time Around
TTITLE9=Spirals
EXTD=
EXTT0=
EXTT1=
EXTT2=
EXTT3=
EXTT4=
EXTT5=
EXTT6=
EXTT7=
EXTT8=
EXTT9=
PLAYORDER=
